<svg aria-hidden="true" style="position:absolute;width:0;height:0;overflow:hidden" xmlns="http://www.w3.org/2000/svg"><defs><symbol id="icon-Ellipse-instagram-2" viewBox="0 0 32 32"><path fill="#fff" style="fill:var(--color1, #fff)" d="M32 16c0 4.422-1.789 8.422-4.684 11.316A15.898 15.898 0 0 1 16.026 32h-.028.001-.026c-4.41 0-8.403-1.79-11.29-4.683a15.898 15.898 0 0 1-4.684-11.29v-.028V16c0-4.422 1.789-8.422 4.684-11.316A15.898 15.898 0 0 1 15.973 0h.028H16c4.422 0 8.422 1.789 11.316 4.684A15.898 15.898 0 0 1 32 15.974v.028-.001z"/><path fill="#afb1b8" style="fill:var(--color2, #afb1b8)" d="M23.258 13.004a5.298 5.298 0 0 0-.347-1.804l.012.036a3.575 3.575 0 0 0-.843-1.287l-.001-.001a3.602 3.602 0 0 0-1.287-.836 5.21 5.21 0 0 0-1.761-.342h-.006a47.413 47.413 0 0 0-3.038-.043l.041-.001c-1.978 0-2.225.007-2.996.044-.778.036-1.309.16-1.767.335a3.627 3.627 0 0 0-1.287.844c-.371.364-.655.8-.844 1.287a5.219 5.219 0 0 0-.334 1.762v.005a47.413 47.413 0 0 0-.043 3.037l-.001-.041c0 1.978 0 2.225.036 2.996.014.638.138 1.244.354 1.804l-.012-.036c.182.487.473.924.844 1.287.364.371.8.655 1.287.844.458.175.989.298 1.76.335.778.036 1.018.044 2.996.044s2.225-.007 3.004-.044a5.3 5.3 0 0 0 1.796-.347l-.036.012a3.745 3.745 0 0 0 2.122-2.106l.009-.025c.175-.465.305-.989.335-1.767.036-.771.044-1.018.044-2.996 0-1.971 0-2.218-.036-2.996zm-1.309 5.941c-.029.705-.145 1.091-.247 1.345a2.428 2.428 0 0 1-1.365 1.376l-.016.006c-.255.102-.647.218-1.353.247-.764.036-.996.044-2.938.044a51.23 51.23 0 0 1-3.048-.047l.11.004c-.713-.029-1.091-.145-1.345-.247a2.251 2.251 0 0 1-.836-.545l-.001-.001a2.258 2.258 0 0 1-.54-.814l-.005-.015a3.92 3.92 0 0 1-.247-1.351v-.002a49.23 49.23 0 0 1-.044-2.976v.038c0-1.942.007-2.175.044-2.938.029-.713.145-1.091.247-1.353.116-.313.298-.596.545-.829a2.25 2.25 0 0 1 .821-.54l.015-.005c.255-.102.64-.218 1.353-.247.764-.036.996-.044 2.931-.044 1.949 0 2.182 0 2.938.044.713.029 1.091.145 1.353.247.313.116.604.298.836.545.24.233.429.516.545.829.095.262.218.647.247 1.353.036.764.044.996.044 2.938s-.007 2.167-.044 2.938z"/><path fill="#afb1b8" style="fill:var(--color2, #afb1b8)" d="M16.029 12.262a3.738 3.738 0 1 0 0 7.476 3.738 3.738 0 1 0 0-7.476zm0 6.16a2.422 2.422 0 1 1 0-4.844 2.422 2.422 0 1 1 0 4.844zm4.756-6.306a.873.873 0 0 1-1.746 0 .873.873 0 0 1 1.746 0z"/></symbol><symbol id="icon-facebook" viewBox="0 0 32 32"><path fill="#fff" style="fill:var(--color1, #fff)" d="M32 16v.02a15.9 15.9 0 0 1-4.686 11.293A15.902 15.902 0 0 1 16.021 32H16h.001-.02a15.9 15.9 0 0 1-11.293-4.686A15.902 15.902 0 0 1 .001 16.021V16v.001-.02A15.9 15.9 0 0 1 4.687 4.688 15.902 15.902 0 0 1 15.98.001h.021H16h.02a15.9 15.9 0 0 1 11.293 4.686A15.902 15.902 0 0 1 32 15.98v.021V16z"/><path fill="#afb1b8" style="fill:var(--color2, #afb1b8)" d="M18.422 11.142h1.329V8.829c-.56-.065-1.21-.102-1.867-.102h-.071.004c-1.915 0-3.226 1.204-3.226 3.418v2.036h-2.113v2.585h2.113v6.505h2.591v-6.505h2.027l.322-2.585h-2.35v-1.782c0-.747.201-1.258 1.243-1.258z"/></symbol><symbol id="icon-lincedin" viewBox="0 0 32 32"><path fill="#fff" style="fill:var(--color1, #fff)" d="M32 16v.021a15.9 15.9 0 0 1-4.686 11.293 15.902 15.902 0 0 1-11.293 4.687H16h.001-.02a15.9 15.9 0 0 1-11.293-4.686A15.902 15.902 0 0 1 .001 16.022v-.021.001-.02A15.9 15.9 0 0 1 4.687 4.689 15.902 15.902 0 0 1 15.98.002h.021H16h.02a15.9 15.9 0 0 1 11.293 4.686A15.902 15.902 0 0 1 32 15.981v.022-.001z"/><path fill="#afb1b8" style="fill:var(--color2, #afb1b8)" d="M23.269 23.273h.004v-5.335c0-2.609-.561-4.62-3.612-4.62-1.467 0-2.451.804-2.853 1.567h-.042v-1.324h-2.893v9.711h3.012v-4.808c0-1.266.24-2.491 1.808-2.491 1.545 0 1.568 1.445 1.568 2.572v4.728h3.009zM8.967 13.562h3.016v9.711H8.967v-9.711zm1.507-4.835c-.965 0-1.747.782-1.747 1.747 0 .964.783 1.763 1.747 1.763s1.746-.799 1.746-1.763c0-.964-.782-1.746-1.746-1.747z"/></symbol><symbol id="icon-twitter" viewBox="0 0 32 32"><path fill="#fff" style="fill:var(--color1, #fff)" d="M32 16v.02a15.9 15.9 0 0 1-4.686 11.293A15.902 15.902 0 0 1 16.021 32H16h.001-.02a15.9 15.9 0 0 1-11.293-4.686A15.902 15.902 0 0 1 .001 16.021V16v.001-.02A15.9 15.9 0 0 1 4.687 4.688 15.902 15.902 0 0 1 15.98.001h.021H16h.02a15.9 15.9 0 0 1 11.293 4.686A15.902 15.902 0 0 1 32 15.98v.021V16z"/><path fill="#afb1b8" style="fill:var(--color2, #afb1b8)" d="M23.273 11.49c-.5.224-1.08.39-1.688.467l-.031.003a2.98 2.98 0 0 0 1.306-1.627l.006-.021a5.851 5.851 0 0 1-1.853.715l-.038.006a2.981 2.981 0 0 0-5.158 2.036v.003c0 .236.02.464.07.68a8.443 8.443 0 0 1-6.147-3.119 2.984 2.984 0 0 0 .917 3.986 2.937 2.937 0 0 1-1.362-.375l.015.008v.033a2.995 2.995 0 0 0 2.37 2.927l.02.003a2.906 2.906 0 0 1-.756.098h-.028.001c-.191 0-.383-.011-.564-.051a3.012 3.012 0 0 0 2.786 2.078 5.95 5.95 0 0 1-3.69 1.271h-.046c-.238 0-.472-.015-.702-.044l.027.003a8.318 8.318 0 0 0 4.548 1.338h.029-.001c5.487 0 8.487-4.545 8.487-8.486 0-.131-.004-.259-.011-.385a5.994 5.994 0 0 0 1.481-1.526l.014-.021z"/></symbol></defs></svg>