<svg aria-hidden="true" style="position:absolute;width:0;height:0;overflow:hidden" xmlns="http://www.w3.org/2000/svg"><defs><symbol id="icon-antenna-1" viewBox="0 0 32 32"><path fill="#212121" style="fill:var(--color1, #212121)" d="m30.77 22.1-8.44-8.5.94-4.62c.24.09.5.14.76.14h.03a2.16 2.16 0 1 0-2.03-1.42V7.7l-4.96.6L8.97.16A.54.54 0 0 0 8.6 0a.52.52 0 0 0-.37.15L6.7 1.65a.53.53 0 0 0 0 .76l.82.82a14.9 14.9 0 0 0 2.52 17.66c.04.05.09.08.14.1-.03.2-.05.38-.05.56v6.18h-6.4a2.67 2.67 0 0 0-2.67 2.67v1.06c0 .3.24.54.54.54h24.53c.3 0 .53-.24.53-.54V30.4c0-1.47-1.2-2.67-2.66-2.67h-6.4V25a14.79 14.79 0 0 0 10.17-1.5l-.08.04.81.82c.1.1.24.16.38.16s.27-.06.37-.15l1.51-1.51a.53.53 0 0 0 0-.75zm-7.5-15.87A1.06 1.06 0 0 1 25.1 7c0 .59-.47 1.06-1.06 1.06a1.07 1.07 0 0 1-.75-1.82zm-1.25 3.5-.6 2.95-1.17-1.18 1.77-1.76zm-.6-.9-1.92 1.91L18 9.25l3.4-.41zM24 28.8c.89 0 1.6.72 1.6 1.6v.54H2.14v-.54c0-.88.72-1.6 1.6-1.6H24zm-7.46-2.14v1.07H11.2v-1.07h5.34zM11.2 25.6v-4.05c0-1.3 1.2-2.35 2.67-2.35s2.66 1.05 2.66 2.35v4.05H11.2zm6.4-1.7v-2.35c0-1.88-1.67-3.41-3.73-3.41h-.07a3.8 3.8 0 0 0-3.2 1.76l-.02.02A13.81 13.81 0 0 1 8.34 3.96l-.03.07 18.6 18.71a13.64 13.64 0 0 1-9.4 1.15l.1.01zm11.3-.68-.76-.76L7.84 2.04l.75-.75 21.06 21.18-.76.75z"/><path fill="#2196f3" style="fill:var(--color2, #2196f3)" d="M13.87 20.27a1.6 1.6 0 0 0 0 3.2 1.6 1.6 0 0 0 0-3.2zm.38 1.98a.53.53 0 0 1-.91-.38c0-.3.23-.54.53-.54a.54.54 0 0 1 .37.91z"/></symbol><symbol id="icon-astronaut-1" viewBox="0 0 32 32"><path fill="#2196f3" style="fill:var(--color2, #2196f3)" d="M31.97 4.53a.54.54 0 0 0-.43-.37l-1.9-.27-.86-1.74c-.18-.36-.78-.36-.96 0l-.85 1.74-1.9.27a.54.54 0 0 0-.3.92l1.38 1.34-.33 1.9v.09a.53.53 0 0 0 .78.47l1.7-.9 1.71.9a.53.53 0 0 0 .78-.57v.01l-.33-1.9 1.39-1.35c.14-.14.2-.35.13-.55zm-2.46 1.32a.53.53 0 0 0-.15.47l.19 1.12-1-.53a.52.52 0 0 0-.5 0l-1 .53.2-1.12a.53.53 0 0 0-.16-.47l-.81-.79 1.12-.16a.54.54 0 0 0 .4-.3l.5-1 .5 1c.08.16.23.27.4.3l1.12.16-.8.8zm-3.38 14.68h-1.06v1.06h1.07v-1.07zm0 2.13h-1.06v1.06h1.07v-1.06zm1.07-1.07h-1.06v1.07h1.06v-1.07zm-2.13 0H24v1.07h1.06v-1.07zm-2.67 4.8h-1.06v1.07h1.06v-1.07zm0 2.14h-1.06v1.06h1.06v-1.07zm1.07-1.07H22.4v1.06h1.06v-1.06zm-2.13 0h-1.07v1.06h1.07v-1.06zM16 24.26h-1.06v1.06H16v-1.06zm0 2.13h-1.06v1.07H16v-1.07zm1.07-1.06H16v1.06h1.06v-1.07zm-2.13 0h-1.07v1.06h1.07v-1.07zM5.87 6.13H4.8v1.06h1.07V6.12zm0 2.13H4.8v1.06h1.07V8.26zm1.06-1.07H5.86v1.07h1.07V7.19zm-2.13 0H3.74v1.07H4.8V7.19z"/><path fill="#212121" style="fill:var(--color1, #212121)" d="M24.71 14.16c-.28-.38-.7-.64-1.18-.7a1.77 1.77 0 0 0-1.34.35l-1.25.96-1.9 1.41-1.36-.54A6.93 6.93 0 0 0 14.83 2.4a6.95 6.95 0 0 0-5.84 10.7l-2.77-.03H6.2c-.06 0-.1.02-.16.03l-.03.02h-.03l-3.23 1.6-1.9.91a1.78 1.78 0 0 0 1.8 3.09h-.02l1.39-.73 2.26-1.17 1.36-.01-6.78 6.76a1.64 1.64 0 0 0 0 2.35 1.66 1.66 0 0 0 2.36 0l1.3-1.31 1.75-1.3.9.9-1.76 1.75-1.34 1.33a1.64 1.64 0 0 0 0 2.36 1.66 1.66 0 0 0 2.36 0l3.48-3.47 1.01-1 .02-.03 5.16-5.66 3.48.5h.06a.5.5 0 0 0 .2-.03l.05-.03.06-.02 3.21-2.13.03-.04.04-.02 1.27-1.2a1.78 1.78 0 0 0 .2-2.36h.01zm-22.58 3.6a.72.72 0 0 1-.78-1.2l1.32-.63.32.92.13.4-.99.52zm3.5-1.82-1.55.8-.26-.74-.18-.54 2.03-1-.04 1.48zm15.1-6.61a5.8 5.8 0 0 1-.6 2.56l-4.18-1.9a1.86 1.86 0 0 0-.78-1.39h-.01l1.46-4.86a5.87 5.87 0 0 1 4.1 5.59zm-11.8 0a5.89 5.89 0 0 1 6.68-5.82h-.03l-1.44 4.75h-.05c-1.03 0-1.87.83-1.87 1.86a1.87 1.87 0 0 0 3.48.93l3.87 1.75A5.9 5.9 0 0 1 8.93 9.33zm5.96.8a.8.8 0 1 1-1.61 0 .8.8 0 0 1 1.61 0zM2.47 25.15a.61.61 0 0 1-.86 0 .6.6 0 0 1 0-.85l.96-.96.86.85-.97.95zm3.21 3.73a.6.6 0 0 1-.85-.84l.96-.96.85.84-.96.96zm3.49-3.47L7.4 27.17l-.85-.85 1.76-1.75.1-.14.02-.04a.37.37 0 0 0 .02-.12l.02-.08-.02-.1-.02-.1a.7.7 0 0 0-.09-.14l-.03-.04-1.6-1.6-.06-.03c-.03-.03-.06-.05-.1-.06a.5.5 0 0 0-.08-.03.54.54 0 0 0-.1-.03l-.1.01-.1.02a.31.31 0 0 0-.1.05l-.06.02-1.77 1.33-.9-.9 2.4-2.39 4.36 4.3-.93.9zm6.81-7.02h-.07a.52.52 0 0 0-.35.14l-.05.03-4.7 5.15-4.32-4.25 2.83-2.83c.1-.1.16-.23.16-.37 0-.3-.24-.54-.53-.54l-2.23.01.03-1.6 3.1.02a6.93 6.93 0 0 0 6.31 1.97l-.04.01c.03.03.08.07.13.09l2.4.96.16.76.18.88-3-.42zm4.04.18-.3-1.55 1.44-1.08.38.5.56.75-2.08 1.38zm3.76-2.83-.84.79-.93-1.24.83-.64a.73.73 0 0 1 .55-.14.72.72 0 0 1 .4 1.23z"/><path fill="#212121" style="fill:var(--color1, #212121)" d="m13.6 18.55-2.14-2.14a.53.53 0 0 0-.75 0l-2.15 2.14a.53.53 0 0 0 0 .75l2.15 2.13a.53.53 0 0 0 .75 0l2.14-2.13a.53.53 0 0 0 0-.75zm-2.51 1.75-1.4-1.37 1.39-1.39 1.39 1.39-1.4 1.38zm6.08-15.23-.27 1.04c.08.01 1.74.45 1.74 2.15h1.07c0-2.02-1.67-2.97-2.54-3.19zm2.54 4.26h-1.07v1.06h1.07V9.32z"/></symbol><symbol id="icon-clock-1" viewBox="0 0 32 32"><path fill="#212121" style="fill:var(--color1, #212121)" d="M31.3 15.3a15.3 15.3 0 1 0-20.07 14.55l.1.03a.68.68 0 0 0 .54-.06c.14-.08.23-.2.28-.36l3.86-12.25a1.91 1.91 0 1 0-.85-3.63h.01l-5.1-5.1a.64.64 0 0 0-.9.9l5.1 5.1a1.87 1.87 0 0 0 .53 2.3v.01l-3.68 11.67a14.04 14.04 0 1 1 10.66-.38l-.09.03-.4-1.87a.64.64 0 0 0-1.05-.34l-3.83 3.42a.64.64 0 0 0 .22 1.08l4.9 1.57a.64.64 0 0 0 .82-.75l-.39-1.83a15.28 15.28 0 0 0 9.33-14.06v-.03zM16 14.66a.64.64 0 0 1 0 1.28.64.64 0 0 1 0-1.28zm2.1 14.87 2.18-1.95.6 2.84-2.8-.9z"/><path fill="#2196f3" style="fill:var(--color2, #2196f3)" d="M15.36 3.19v1.33a.64.64 0 1 0 1.27-.06V3.18a.64.64 0 0 0-1.28 0zM3.88 14.66a.64.64 0 0 0 0 1.28h1.27a.64.64 0 0 0 0-1.28H3.87zm24.23 1.28a.64.64 0 0 0 0-1.28h-1.28a.64.64 0 0 0 0 1.28h1.28z"/></symbol><symbol id="icon-diagram-1" viewBox="0 0 32 32"><path fill="#2196f3" style="fill:var(--color2, #2196f3)" d="M14.93 14.97h1.06v4.8h-1.06v-4.8zm4.26 2.13h1.07v2.66h-1.07V17.1zm-8.53 1.6h1.07v1.06h-1.07V18.7zm-3.2-.54h1.07v1.6H7.46v-1.6z"/><path fill="#212121" style="fill:var(--color1, #212121)" d="M1.6 28.3h25.59c.88 0 1.6-.72 1.6-1.6v-2.14c0-.89-.72-1.6-1.6-1.6h-.54V9.67l3.03-2.87a1.6 1.6 0 1 0-.75-.75v-.01L26.65 8.2V6.97c0-.88-.71-1.6-1.6-1.6H3.73c-.88 0-1.6.72-1.6 1.6v16H1.6c-.88 0-1.6.71-1.6 1.6v2.12c0 .89.72 1.6 1.6 1.6zM30.39 4.83h.04a.53.53 0 1 1-.05 1.06.54.54 0 0 1 0-1.06zM3.2 6.97c0-.3.24-.53.53-.53h21.32c.3 0 .54.23.54.53V9.2l-1.07 1.01V8.04c0-.3-.24-.54-.53-.54H4.8c-.3 0-.53.24-.53.54v13.32c0 .3.24.53.53.53H24c.29 0 .53-.23.53-.53V11.7l1.06-1.01v12.28H3.2v-16zM8 13.9h-.01a1.6 1.6 0 1 0 1.11 2.74l1.86.94c.21.1.47.05.63-.13l3.94-4.43 3.87 2.9c.21.16.5.14.69-.03l3.37-3.2v8.14H5.33V8.56h18.13v2.66l-3.78 3.57-3.9-2.92a.54.54 0 0 0-.72.07l-4 4.5-1.49-.75.03-.2c0-.88-.72-1.6-1.6-1.6zm.53 1.6a.53.53 0 1 1-1.07 0 .53.53 0 1 1 1.07 0zm3.2 8.53h5.32v.53c0 .3-.24.53-.53.53h-4.26a.54.54 0 0 1-.54-.53v-.53zm-10.67.53c0-.3.24-.53.54-.53h9.06v.53c0 .88.71 1.6 1.6 1.6h4.26c.89 0 1.6-.72 1.6-1.6v-.53h9.06c.3 0 .53.24.53.53v2.13c0 .3-.23.53-.53.53H1.6a.53.53 0 0 1-.53-.53v-2.13z"/></symbol><symbol id="icon-Ellipse-facebook" viewBox="0 0 32 32"><path fill="#fff" style="fill:var(--color3, #fff)" d="M32 16c0 4.42-1.79 8.42-4.68 11.32A15.9 15.9 0 0 1 16.02 32h-.05a15.9 15.9 0 0 1-11.29-4.68A15.9 15.9 0 0 1 0 16.02V16c0-4.42 1.79-8.42 4.68-11.32A15.9 15.9 0 0 1 15.98 0H16c4.42 0 8.42 1.79 11.32 4.68A15.9 15.9 0 0 1 32 15.98V16z"/><path fill="#afb1b8" style="fill:var(--color4, #afb1b8)" d="M18.42 11.14h1.33V8.83c-.23-.03-1.01-.1-1.93-.1-1.92 0-3.23 1.2-3.23 3.41v2.04h-2.11v2.58h2.1v6.51h2.6v-6.5h2.03l.32-2.59h-2.35V12.4c0-.75.2-1.26 1.24-1.26z"/></symbol><symbol id="icon-Ellipse-in" viewBox="0 0 32 32"><path fill="#fff" style="fill:var(--color3, #fff)" d="M32 16c0 4.42-1.79 8.42-4.68 11.32A15.9 15.9 0 0 1 16.02 32h-.05a15.9 15.9 0 0 1-11.29-4.68A15.9 15.9 0 0 1 0 16.02V16c0-4.42 1.79-8.42 4.68-11.32A15.9 15.9 0 0 1 15.98 0H16c4.42 0 8.42 1.79 11.32 4.68A15.9 15.9 0 0 1 32 15.98V16z"/><path fill="#afb1b8" style="fill:var(--color4, #afb1b8)" d="M23.27 23.27v-5.33c0-2.6-.56-4.62-3.61-4.62h-.12c-1.16 0-2.17.62-2.72 1.55l-.01.02h-.05v-1.33h-2.9v9.71h3.03v-4.8c0-1.27.24-2.5 1.8-2.5 1.55 0 1.57 1.45 1.57 2.58v4.72h3.01zm-14.3-9.7h3.01v9.7H8.97v-9.7zm1.5-4.84c-.96 0-1.74.78-1.74 1.74 0 .98.78 1.76 1.74 1.77a1.76 1.76 0 0 0 0-3.51z"/></symbol><symbol id="icon-Ellipse-instagram-2" viewBox="0 0 32 32"><path fill="#fff" style="fill:var(--color3, #fff)" d="M32 16c0 4.42-1.79 8.42-4.68 11.32A15.9 15.9 0 0 1 16.02 32h-.05a15.9 15.9 0 0 1-11.29-4.68A15.9 15.9 0 0 1 0 16.02V16c0-4.42 1.79-8.42 4.68-11.32A15.9 15.9 0 0 1 15.98 0H16c4.42 0 8.42 1.79 11.32 4.68A15.9 15.9 0 0 1 32 15.98V16z"/><path fill="#afb1b8" style="fill:var(--color4, #afb1b8)" d="M23.26 13a5.3 5.3 0 0 0-.35-1.8l.01.04a3.6 3.6 0 0 0-2.13-2.12 5.2 5.2 0 0 0-1.76-.35 47.41 47.41 0 0 0-3.04-.04h.04c-1.98 0-2.23 0-3 .04-.78.04-1.3.16-1.77.33-.48.2-.92.48-1.28.85-.37.36-.66.8-.85 1.29-.2.52-.32 1.13-.33 1.76a47.41 47.41 0 0 0-.04 3.04V16c0 1.98 0 2.22.03 3 .02.63.14 1.24.36 1.8l-.02-.04c.19.49.48.93.85 1.29.36.37.8.65 1.28.84.46.18 1 .3 1.76.34.78.03 1.02.04 3 .04s2.23 0 3-.04a5.3 5.3 0 0 0 1.8-.35l-.04.01a3.74 3.74 0 0 0 2.13-2.1v-.03c.18-.46.31-.99.34-1.76.04-.78.04-1.02.04-3 0-1.97 0-2.22-.03-3zm-1.31 5.95c-.03.7-.15 1.09-.25 1.34a2.43 2.43 0 0 1-1.36 1.38h-.02c-.25.1-.65.22-1.35.25a48.82 48.82 0 0 1-3.65.05c-.78 0-1.56-.02-2.34-.05h.11a3.83 3.83 0 0 1-1.34-.25c-.33-.12-.61-.3-.84-.54-.23-.23-.42-.5-.54-.82v-.01c-.16-.4-.25-.87-.25-1.35a49.23 49.23 0 0 1-.05-2.98V16c0-1.95.01-2.18.05-2.94.03-.71.14-1.1.25-1.35.11-.32.3-.6.54-.83.23-.24.5-.43.82-.54h.02c.25-.11.64-.23 1.35-.25.76-.04 1-.05 2.93-.05 1.95 0 2.18 0 2.94.04.71.03 1.09.15 1.35.25.31.12.6.3.84.55.24.23.43.51.54.83.1.26.22.64.25 1.35.04.76.04 1 .04 2.94s0 2.16-.04 2.94z"/><path fill="#afb1b8" style="fill:var(--color4, #afb1b8)" d="M16.03 12.26a3.74 3.74 0 1 0 0 7.48 3.74 3.74 0 1 0 0-7.48zm0 6.16a2.42 2.42 0 1 1 0-4.84 2.42 2.42 0 1 1 0 4.84zm4.75-6.3a.87.87 0 0 1-1.74 0 .87.87 0 0 1 1.75 0z"/></symbol><symbol id="icon-Ellipse-instagram" viewBox="0 0 32 32"><path fill="#2196f3" style="fill:var(--color2, #2196f3)" d="M32 16c0 4.42-1.79 8.42-4.68 11.32A15.9 15.9 0 0 1 16.02 32h-.05a15.9 15.9 0 0 1-11.29-4.68A15.9 15.9 0 0 1 0 16.02V16c0-4.42 1.79-8.42 4.68-11.32A15.9 15.9 0 0 1 15.98 0H16c4.42 0 8.42 1.79 11.32 4.68A15.9 15.9 0 0 1 32 15.98V16z"/><path fill="#fff" style="fill:var(--color3, #fff)" d="M23.26 13a5.3 5.3 0 0 0-.35-1.8l.01.04a3.6 3.6 0 0 0-2.13-2.12 5.2 5.2 0 0 0-1.76-.35 47.41 47.41 0 0 0-3.04-.04h.04c-1.98 0-2.23 0-3 .04-.78.04-1.3.16-1.77.33-.48.2-.92.48-1.28.85-.37.36-.66.8-.85 1.29-.2.52-.32 1.13-.33 1.76a47.41 47.41 0 0 0-.04 3.04V16c0 1.98 0 2.22.03 3 .02.63.14 1.24.36 1.8l-.02-.04c.19.49.48.93.85 1.29.36.37.8.65 1.28.84.46.18 1 .3 1.76.34.78.03 1.02.04 3 .04s2.23 0 3-.04a5.3 5.3 0 0 0 1.8-.35l-.04.01a3.74 3.74 0 0 0 2.13-2.1v-.03c.18-.46.31-.99.34-1.76.04-.78.04-1.02.04-3 0-1.97 0-2.22-.03-3zm-1.31 5.95c-.03.7-.15 1.09-.25 1.34a2.43 2.43 0 0 1-1.36 1.38h-.02c-.25.1-.65.22-1.35.25a48.82 48.82 0 0 1-3.65.05c-.78 0-1.56-.02-2.34-.05h.11a3.83 3.83 0 0 1-1.34-.25c-.33-.12-.61-.3-.84-.54-.23-.23-.42-.5-.54-.82v-.01c-.16-.4-.25-.87-.25-1.35a49.23 49.23 0 0 1-.05-2.98V16c0-1.95.01-2.18.05-2.94.03-.71.14-1.1.25-1.35.11-.32.3-.6.54-.83.23-.24.5-.43.82-.54h.02c.25-.11.64-.23 1.35-.25.76-.04 1-.05 2.93-.05 1.95 0 2.18 0 2.94.04.71.03 1.09.15 1.35.25.31.12.6.3.84.55.24.23.43.51.54.83.1.26.22.64.25 1.35.04.76.04 1 .04 2.94s0 2.16-.04 2.94z"/><path fill="#fff" style="fill:var(--color3, #fff)" d="M16.03 12.26a3.74 3.74 0 1 0 0 7.48 3.74 3.74 0 1 0 0-7.48zm0 6.16a2.42 2.42 0 1 1 0-4.84 2.42 2.42 0 1 1 0 4.84zm4.75-6.3a.87.87 0 0 1-1.74 0 .87.87 0 0 1 1.75 0z"/></symbol><symbol id="icon-Ellipse-twiter" viewBox="0 0 32 32"><path fill="#fff" style="fill:var(--color3, #fff)" d="M32 16c0 4.42-1.79 8.42-4.68 11.32A15.9 15.9 0 0 1 16.02 32h-.05a15.9 15.9 0 0 1-11.29-4.68A15.9 15.9 0 0 1 0 16.02V16c0-4.42 1.79-8.42 4.68-11.32A15.9 15.9 0 0 1 15.98 0H16c4.42 0 8.42 1.79 11.32 4.68A15.9 15.9 0 0 1 32 15.98V16z"/><path fill="#afb1b8" style="fill:var(--color4, #afb1b8)" d="M23.27 11.5c-.53.22-1.12.38-1.71.46.61-.37 1.09-.94 1.3-1.65-.58.35-1.2.59-1.88.73a2.97 2.97 0 0 0-5.1 2.73v-.02a8.43 8.43 0 0 1-6.13-3.1l-.01-.02a3 3 0 0 0 .9 3.98h.02c-.48 0-.95-.14-1.35-.36v.03a2.99 2.99 0 0 0 2.4 2.93 2.9 2.9 0 0 1-1.38.05h.02c.4 1.2 1.5 2.05 2.79 2.08a5.96 5.96 0 0 1-4.44 1.24h.03a8.31 8.31 0 0 0 4.55 1.34h.03c5.48 0 8.48-4.55 8.48-8.49l-.01-.38c.6-.42 1.09-.95 1.5-1.55z"/></symbol><symbol id="icon-envelope" viewBox="0 0 32 32"><path fill="#757575" style="fill:var(--color5, #757575)" d="M29 4H3a3 3 0 0 0-3 3v18a3 3 0 0 0 3 3h26a3 3 0 0 0 3-3V7a3 3 0 0 0-3-3zm0 2c.15 0 .28.03.4.08L16 17.68 2.6 6.08A.98.98 0 0 1 3 6h26zm0 20H3a1 1 0 0 1-1-1V8.2l13.34 11.56a1 1 0 0 0 1.32 0L30 8.2V25a1 1 0 0 1-1 1z"/></symbol><symbol id="icon-smartphone" viewBox="0 0 32 32"><path fill="#757575" style="fill:var(--color5, #757575)" d="M23 0H9a3 3 0 0 0-3 3v26a3 3 0 0 0 3 3h14a3 3 0 0 0 3-3V3a3 3 0 0 0-3-3zM9 2h14c.56 0 1 .44 1 1v21H8V3c0-.56.44-1 1-1zm14 28H9a1 1 0 0 1-1-1v-3h16v3a1 1 0 0 1-1 1z"/><path fill="#757575" style="fill:var(--color5, #757575)" d="M10.7 27.48c.4.36.4.96 0 1.32a1.05 1.05 0 0 1-1.4 0 .9.9 0 0 1 0-1.32c.4-.36 1-.36 1.4 0z"/></symbol></defs></svg>